<?xml version="1.0" encoding="utf-8"?>
<!-- Generator: Adobe Illustrator 23.0.1, SVG Export Plug-In . SVG Version: 6.00 Build 0)  -->
<svg version="1.1" id="Layer_1" xmlns="http://www.w3.org/2000/svg" xmlns:xlink="http://www.w3.org/1999/xlink" x="0px" y="0px"
	 viewBox="0 0 427 64" style="enable-background:new 0 0 427 64;" xml:space="preserve">
<style type="text/css">
	.st0{fill-rule:evenodd;clip-rule:evenodd;fill:#333333;}
	.st1{fill:#333333;}
	.st2{enable-background:new    ;}
</style>
<title>Group 6</title>
<desc>Created with Sketch.</desc>
<g id="Page-1">
	<g id="article_desktop" transform="translate(-524.000000, -51.000000)">
		<g id="Group-6" transform="translate(524.000000, 51.000000)">
			<g id="Group" transform="translate(72.982800, 0.000000)">
				<path id="Path" class="st0" d="M5.8,26.4C11.3,15.9,21,4.5,32.4,0.7C34.7,0,37.9-0.6,39.9,1c1.9,1.4,2.1,3.7,1.7,5.9
					c-0.5,2.5-2.2,5.7-5.1,6.2c-0.5,0-1-0.2-1.3-0.5c-0.7-0.7-0.7-1.8-0.5-2.7c0.4-2,2.3-4.2,4.4-4.5c0.4-0.3,0.2-0.6,0.1-1
					c-0.3-0.5-0.6-0.8-1.2-0.9c-2.3-0.3-4,1.2-5.7,2.4c-6.6,5.5-11.4,12.4-15.5,19.4c-3.3,6.3-6.2,12.7-7,20
					c-0.4,5.3,1.3,10.5,5.9,13c5,2.7,11.5,0.9,16.5-0.5l4.6-1.5l8.8-2.7c8.4-2.5,18.9-3.1,27.2,0.3c5,2.1,10.1,5,13.3,10
					c0,0.1,0,0.3-0.2,0.3c-7.1-2-16.3-3.9-23.2-0.5l-0.4-0.1c-2.1-3.5-5.7-5.4-9.4-6.1c-11.9-1.2-21.6,4.5-32.7,6
					c-5.6,0.5-11.7,0.4-15.6-4.1C-1.5,53-0.7,41.8,2.2,34.2C3.3,31.6,4.5,28.9,5.8,26.4z"/>
				<path id="Shape" class="st1" d="M21.7,29.5c3-5.6,7.5-12.5,13.8-14.6c1.7-0.4,3.5-0.2,4.8,0.9c2.7,2.8,1.6,7.6,0.7,10.9
					c0,0.2,0.2,0.4,0.4,0.5c2.4-0.1,4.3-1.2,6.1-3c3.7-4.3,7.7-10,13.8-9.3c1.2,0.2,2.3,0.8,2.9,2c1.5,3.2,0,6.6-2.1,9.2
					c-0.8,0.8-1.8,1.4-3,1c-0.5-0.2-0.8-0.7-1-1.1c-0.5-2.2,0.8-4.3,2.5-5.4c0.5-0.5,2-0.2,1.6-1.3c-0.3-0.5-0.8-0.5-1.3-0.6
					c-3,1.3-4.9,4.4-6.6,7c-2.2,3.6-3.9,7.2-5,11.2c-0.3,1.4-0.7,3.3,0.1,4.6c0.6,0.8,1.5,1.2,2.6,0.9c2.9-1.2,5.5-3.6,7.7-6.2
					c5.1-6.4,7.8-14.2,14.7-19.4c2.2-1.5,5.1-2.7,7.7-1.3c0.5,0.2,0.7,0.7,1.3,0.6c0.5-0.5,0.7-1.3,1.5-1.1c1.9,0,4.1-0.1,6,0.1
					l0.1,0.2l-0.5,1.4L79.9,39.1c-0.1,0.3-0.1,0.6-0.1,0.8c0.2,0.3,0.5,0.3,0.8,0.2c1.5-0.9,2.7-2.6,3.8-4c0.9-1.3,1.8-2.7,2.4-4.2
					c0.3-0.5,0.6-0.9,1.2-0.8c0.6,0.1,1.4-0.2,1.8,0.3c-0.7,1.9-1.7,3.6-2.7,5.3c-2.9,4.6-6.7,10-12,11.3c-0.9,0.1-2,0.2-2.6-0.5
					c-1-0.8-1.1-2.1-1.4-3.3c-0.1-0.1-0.3-0.2-0.5-0.1c-2.3,2.2-4.6,4.2-7.7,3.8c-1-0.2-1.9-1-2.3-2c-0.8-1.7-0.5-3.7-0.5-5.6
					c-0.1-0.2-0.4-0.1-0.5-0.1c-3.4,3.6-7.2,6.7-11.8,7.6c-2.2,0.3-4-0.4-5.4-2c-3.4-4.7-0.7-10.8,1.1-15.3c0.1-0.2,0.1-0.5-0.2-0.6
					c-1.3,0.1-2.4,0.3-3.6,0.5l-0.5,0.5c-2.8,5.3-5.8,11-10.8,15.1c-2.1,1.6-5.1,2.6-7.6,1.2c-2.5-1.8-2.8-5-2.4-8
					C19.1,35.7,20.3,32.6,21.7,29.5z M29.7,29.3c-1.4,3.1-3,6.2-3,9.7c0.2,0.7,0.5,1.5,1.3,1.7c0.8,0.2,1.4-0.2,2-0.7
					c2.9-2.5,4.9-5.9,6.5-9.2c0.1-0.3,0.4-0.7,0.2-1c-1.7-0.7-3.3-2-4.7-3.5l-0.3-0.1c-0.3,0.1-0.4,0.3-0.5,0.5L29.7,29.3z
					 M34.1,23.1c0.1,1.6,1.5,3,2.9,3.6c0.4,0.1,0.9,0.4,1.2-0.1c0.5-1,0.8-2.2,1.1-3.3c0.3-1.5,0.5-3.5-0.9-4.4
					c-0.5-0.3-1.2-0.3-1.6-0.1C35.2,19.6,34,21.3,34.1,23.1z M69.1,35.6c-0.4,1.3-1,2.8-0.5,4.3c0.1,0.3,0.5,0.5,0.7,0.6
					c1.2,0,2-1,2.7-2c3.4-4.9,6-10.2,8.4-15.5c0.4-1.1,1-2.2,1-3.5c0-0.3-0.3-0.5-0.5-0.6c-0.5-0.3-1,0.1-1.4,0.4
					c-4.6,3.6-7,8.9-9.4,13.9L69.1,35.6z"/>
				<path class="st0" d="M91.2,22.6c0.9-2,1.8-4.1,2.9-6c0.5-0.5,1.3-0.5,1.8-0.6l4.8,0.1l0.2,0.2c-0.8,2-1.7,4-2.7,6
					c-0.3,0.5-0.8,1-1.3,1.1c-1.9,0-3.9,0.2-5.8,0C91,23,91.2,22.8,91.2,22.6z"/>
				<path class="st1" d="M96.8,32.8c3.5-7.3,7.7-14.4,13.7-20.6c5.8-5.8,12.1-10.6,19.6-12c2-0.3,4.4-0.1,6,1.3
					c0.3,0.3,0.6,0.5,1.1,0.4c5.4-2.2,13-3,18.5-0.2c3.2,1.5,6.1,3.6,9.2,5.5c0.4,0.2,0.2,0.6,0,0.8c-1.8,2-3.2,3.9-4.8,6
					c-0.2,0.2-0.4,0.1-0.6,0l-8-5.6c-3.7-2.6-8.1-4.4-12.9-3.6c-0.5,0.3-0.3,1-0.4,1.4c0.1,5-1.7,9.4-4.1,13.5
					c-2,2.8-4.2,5.7-7.5,6.6c-1.4,0.3-2.8-0.2-3.6-1.3c-2.4-3.7-0.3-8.2,1.5-11.4c2-3.6,5.1-6.9,8.4-9.4c0.1-0.1,0.3-0.3,0.1-0.4
					c-0.4-0.4-0.9-0.1-1.3-0.1c-5.4,1.8-9.8,6.7-13.8,11.3c-7.2,8.9-12.6,18.6-15.7,29.3c-1,3.9-2.2,10.1,1.8,12.9
					c3.6,1.9,6.9-0.5,9.6-2.9c4.1-4.1,6.8-9,7.9-14.4c0.2-1.6,0.6-3.9-0.9-4.9c-1.3-0.6-2.4,0.5-3.3,1.4c-2,2.5-2.9,5.6-3.3,8.8
					c-0.9,0.8-2,1.3-3,2c-1.9,1.3-3.6,3-5.2,4.8c-0.2,0.1-0.2-0.2-0.3-0.3c-0.2-6,1.9-11.1,5.2-15.7c2.6-3.1,6-5.7,10-4.7
					c1.8,0.4,2.9,2.3,3.3,4c0.6,5.7-1.7,10.5-4.2,15.1c-4.1,6.5-10.5,12.9-18.6,12.1c-3.1-0.2-6-2.3-7.3-5.3c-3-6.2-1-14.1,1.2-20.1
					L96.8,32.8z M124.3,22.2c0.1,0.7,0.4,1.4,1.1,1.7c1.3,0.4,2.5-0.6,3.5-1.4c3.6-3.9,6-8.5,6.5-13.7c0-0.8,0.3-1.8-0.2-2.4
					c-0.3-0.1-0.6,0.1-0.9,0.3c-2.5,1.7-4.8,4.1-6.5,6.6C126.1,16,124.5,18.7,124.3,22.2z"/>
				<path class="st1" d="M128.6,39.5c2.9-4,6.9-8.3,11.9-8.5c1.3,0,2.3,0.5,3.1,1.6c2.1,3.1,0.4,7.2-0.4,10.4
					c-0.1,0.3,0.1,0.4,0.4,0.5c1,0.2,2.2,0,3.1-0.4l0.4-0.4c3.6-10.3,8.9-19.8,15.2-28.9c3.9-5.2,9-10.7,14.8-13.2
					c1.4-0.4,3.4-1.1,4.7,0c1.5,1.3,1.1,3.3,0.7,4.9c-0.2,1.4-1.8,1.6-2.8,1.9c-0.1,0-0.1,0-0.2-0.1c0-0.9,0.5-1.7,0.7-2.7
					c0.1-0.4,0.1-0.9-0.1-1.3c-0.3-0.4-0.8-0.3-1.2-0.2c-2,1-3.6,2.8-5.1,4.5c-5.6,6.7-9.7,13.9-13.6,21.4c-1.3,2.6-2.5,5.1-3.6,7.8
					c0,0.2,0,0.3,0.2,0.4c0.9,0,1.4-0.9,2.1-1.3c5-4.6,9-9.8,12.8-15.1c0.8-0.4,1.7-0.4,2.7-0.4l0.2,0.1c-0.1,0.7-0.7,1.3-1,1.9
					c-4.2,6-8.9,11.9-14.7,17.1l-4.2,3.4c-0.9,0.8-0.9,2-1.3,3c-0.8,2.7-1.6,5.4-1.7,8.3c0,0.4,0.2,1,0.6,1.3c1.1,0.4,2-0.5,2.8-1.3
					c5.6-6.6,8.1-14.6,15-20.5c2.2-1.8,5.3-3.3,8.1-2c0.5,0.2,0.9,0.9,1.5,0.5c0.4-0.3,0.4-1,1.1-1c2.1,0,4.2-0.1,6.2,0.1
					c0.2,0.2,0.1,0.4,0,0.6l-1.4,2.9l-8.7,17.5c-0.4,0.8-0.9,1.6-0.9,2.5c0.1,0.4,0.5,0.4,0.9,0.4c1.6-0.9,2.8-2.4,3.8-3.9
					c1.1-1.5,1.9-3.1,2.9-4.6c0.5-0.3,1.3-0.2,1.9-0.1c0.4,0.4-0.1,0.8-0.2,1.2c-2.5,5.3-6.1,11.1-11.6,13.9c-1.3,0.6-3,1.3-4.5,0.4
					c-1.2-0.8-1-2.2-1.5-3.3c-0.1-0.2-0.4-0.1-0.4-0.1c-2.3,2.1-4.7,4.4-8,3.5c-2-0.9-2.2-3.2-2.4-5.2c-0.1-0.1-0.1-0.3-0.2-0.3
					l-0.3,0.1c-2.2,2.7-5.1,6.1-8.8,5.8c-1.4-0.1-2.7-1.5-3.1-2.8c-1.3-4.2,0.1-8.8,1-12.9c0-0.3-0.3-0.4-0.4-0.4H142l-0.5,0.6
					c-2.3,4.6-4.9,9-8.9,12.9c-2.1,1.9-4.7,3.4-7.6,2.6c-2.4-1.1-3-3.7-3-6.1C122.4,49.8,125.2,44.6,128.6,39.5z M129.5,53.5
					c0.1,0.9,0.4,1.8,1.3,2.1c0.6,0.2,1.3-0.1,1.8-0.3c2.9-2.2,4.7-5.6,6.3-8.7c0.2-0.3,0.3-0.8-0.1-1c-1.5-0.8-3-2-4.3-3.3
					c-0.2-0.2-0.4-0.2-0.6-0.1c-1.1,1.5-1.9,3.1-2.6,4.8C130.5,49,129.5,51.1,129.5,53.5z M136.9,39c0.1,1.6,1.3,3.1,2.8,3.6
					c0.3,0.1,0.8,0.3,1-0.1c0.9-2,1.7-4.3,1.3-6.7c-0.2-0.5-0.6-1.1-1.2-1.3c-0.5-0.2-1.2,0-1.6,0.3C137.6,35.8,137,37.4,136.9,39z
					 M165.1,52.9c-0.1,0.7-0.3,1.7,0.4,2.2c0.3,0.3,0.8,0.4,1.2,0.2c1.5-0.8,2.5-2.4,3.4-3.8c3.1-4.9,5.4-10,7.5-15.3
					c0.1-0.4,0.2-1.1-0.3-1.4c-1.3-0.6-2.2,0.8-3.1,1.4c-4.1,4-6.3,9.1-8.3,14L165.1,52.9z"/>
				<path class="st0" d="M172.1,14.3l2.7-3.6l0.4-0.4c7.7-0.2,13.8-4.8,19.2-10.4c0,0.7-0.3,1.4-0.6,2.2
					c-3.6,8.6-12.2,16.1-21.6,16.3h-2.2c-0.4-0.1-0.1-0.5,0-0.7L172.1,14.3z"/>
			</g>
			<g class="st2">
				<path class="st1" d="M277.1,41.7c-1.5-0.8-2.7-1.9-3.6-3.3c-0.9-1.4-1.3-3-1.3-4.7c0-1.7,0.4-3.3,1.3-4.7c0.9-1.4,2-2.5,3.6-3.3
					c1.5-0.8,3.2-1.2,5.1-1.2c1.4,0,2.8,0.2,4,0.7c1.2,0.5,2.2,1.1,3,2l-2.1,2.3c-1.3-1.3-3-2-4.8-2c-1.2,0-2.3,0.3-3.3,0.8
					s-1.8,1.3-2.4,2.2s-0.9,2-0.9,3.2c0,1.2,0.3,2.2,0.9,3.2c0.6,1,1.4,1.7,2.4,2.2s2.1,0.8,3.4,0.8c2,0,3.6-0.7,4.9-2l2.1,2.3
					c-0.8,0.9-1.8,1.6-3.1,2s-2.6,0.7-4,0.7C280.3,42.9,278.6,42.5,277.1,41.7z"/>
				<path class="st1" d="M297.9,41.8c-1.4-0.8-2.6-1.9-3.4-3.3c-0.8-1.4-1.2-3-1.2-4.8c0-1.8,0.4-3.4,1.2-4.8
					c0.8-1.4,1.9-2.5,3.4-3.3s3.1-1.2,4.9-1.2c1.8,0,3.5,0.4,4.9,1.2c1.4,0.8,2.6,1.9,3.4,3.3c0.8,1.4,1.2,3,1.2,4.8
					c0,1.8-0.4,3.4-1.2,4.8c-0.8,1.4-1.9,2.5-3.4,3.3c-1.4,0.8-3.1,1.2-4.9,1.2C301,42.9,299.3,42.5,297.9,41.8z M305.9,39.1
					c0.9-0.5,1.6-1.3,2.1-2.2s0.8-2,0.8-3.2c0-1.2-0.3-2.3-0.8-3.2s-1.2-1.7-2.1-2.2c-0.9-0.5-2-0.8-3.1-0.8c-1.2,0-2.2,0.3-3.1,0.8
					c-0.9,0.5-1.6,1.3-2.2,2.2s-0.8,2-0.8,3.2c0,1.2,0.3,2.3,0.8,3.2s1.2,1.7,2.2,2.2c0.9,0.5,2,0.8,3.1,0.8
					C304,39.9,305,39.7,305.9,39.1z"/>
				<path class="st1" d="M339.1,42.6h-3.2V28.7l-6,13.6h-2.2l-6-13.3v13.6h-3.2V24.7h4.4l5.9,13.2l5.8-13.2h4.4V42.6z"/>
				<path class="st1" d="M358.7,25.4c0.9,0.5,1.6,1.1,2.1,2s0.7,1.8,0.7,2.8c0,1.1-0.2,2-0.7,2.8c-0.5,0.8-1.2,1.5-2.1,2
					s-2,0.7-3.4,0.7h-5.7v6.8h-3.3V24.7h9C356.6,24.7,357.8,25,358.7,25.4z M357.4,32.2c0.5-0.5,0.8-1.1,0.8-1.9
					c0-0.8-0.3-1.4-0.8-1.9c-0.5-0.5-1.2-0.7-2.2-0.7h-5.6v5.2h5.6C356.1,32.9,356.9,32.6,357.4,32.2z"/>
				<path class="st1" d="M376.9,38.3h-8.3l-1.7,4.3h-3.5l7.3-17.9h4l7.3,17.9h-3.5L376.9,38.3z M375.8,35.5l-3.1-7.9l-3.1,7.9H375.8
					z"/>
				<path class="st1" d="M403.6,24.7v17.9h-3.4l-9.5-13.2v13.2h-3.2V24.7h3.5l9.4,13v-13H403.6z"/>
			</g>
			<g class="st2">
				<path class="st1" d="M419.5,36.6v6.1h-3.3v-6l-7.2-11.9h3.7l5.2,8.9l5.1-8.9h3.7L419.5,36.6z"/>
			</g>
			<g class="st2">
				<path class="st1" d="M16.3,30.8h-6.1v14.9H6.9V30.8H0.8v-3h15.5V30.8z"/>
				<path class="st1" d="M38.6,27.8v17.9h-3.3v-8.1h-10v8.1H22V27.8h3.3v6.8h10v-6.8H38.6z"/>
			</g>
			<g class="st2">
				<path class="st1" d="M60.5,45.7H45.9V27.8h14.4l-0.5,2.9H49.2V35h7.3v2.9h-7.3v4.9h10.9L60.5,45.7z"/>
			</g>
		</g>
	</g>
</g>
</svg>
